<?xml version="1.0" encoding="utf-8"?>
<svg version="1.1" fill="#CCCCCC" xmlns="http://www.w3.org/2000/svg" x="0px" y="0px"
	 viewBox="131 -131 512 512" style="enable-background:new 131 -131 512 512;" xml:space="preserve">
<g id="XMLID_1_">
	<path d="M387,176.5l102.3,102.3h-68.4V381h-68.4V278.7H284L387,176.5z M489.3-28.7h-68.4V-131h-68.4v102.3H284
		L387,73.6L489.3-28.7z M626.1,39.7c0-19.1-15.4-33.8-33.8-33.8H507l-33.8,33.8h102.3l-68.4,68.4H267.8l-68.4-68.4h102.3L267.9,5.9
		h-86.1c-19.1,0-33.8,15.4-33.8,33.8l85.3,85.3L148,210.3c0,19.1,15.4,33.8,33.8,33.8h85.3l33.8-33.8H199.4l68.4-68.4h239.1
		l68.4,68.4h-103l33.8,33.8h85.3c19.1,0,33.8-15.4,33.8-33.8L540.7,125L626.1,39.7z"/>
</g>
</svg>
